<svg width="1977" height="201" viewBox="0 0 1977 201" fill="none" xmlns="http://www.w3.org/2000/svg">
<g clip-path="url(#clip0_1178_6242)">
<path d="M103.656 33.0534C64.2705 33.0534 34.4148 56.0072 34.4148 98.7487C34.4148 141.49 65.2837 167.61 106.822 167.61C137.089 167.61 164.602 150.197 169.921 118.758C178.818 122.716 187.524 126.673 196.643 130.219C191.102 182.047 144.403 200.062 102.675 200.062C42.7415 200.03 0 157.099 0 98.717C0 40.3353 43.533 1.58301 104.258 1.58301C148.962 1.58301 188.126 21.5607 197.434 64.6821L169.13 75.5733C160.423 46.0975 129.744 32.8318 103.656 32.8318V33.0218V33.0534Z" fill="white"/>
<path d="M225.136 101.092C225.136 39.3538 264.522 0 323.853 0C383.185 0 423.773 39.9554 423.773 99.1286C423.773 158.302 384.198 200.22 324.645 200.22C265.092 200.22 224.946 160.455 224.946 101.092H225.136ZM324.043 30.6472C283.866 30.6472 258.348 56.1655 258.348 98.3054C258.348 140.445 283.866 169.921 324.613 169.921C365.36 169.921 390.878 144.403 390.878 102.263C390.878 60.123 364.758 30.6472 324.012 30.6472H324.043Z" fill="white"/>
<path d="M627.729 193.888H466.103V7.12366H497.763V163.019H627.729V193.888Z" fill="white"/>
<path d="M639.224 101.092C639.224 39.3538 678.578 0 738.131 0C797.684 0 838.051 39.9554 838.051 99.1286C838.051 158.302 798.476 200.22 738.923 200.22C679.369 200.22 639.224 160.455 639.224 101.092ZM738.131 30.6472C697.986 30.6472 672.436 56.1655 672.436 98.3054C672.436 140.445 697.954 169.921 738.701 169.921C779.448 169.921 804.966 144.403 804.966 102.263C804.966 60.123 778.846 30.6472 738.099 30.6472H738.131Z" fill="white"/>
<path d="M1065.34 134.937C1065.34 185.973 1013.51 200.822 972.163 200.822C940.692 200.822 885.698 196.263 875.029 145.828L903.112 132.372C914.984 163.621 944.46 167.8 968.807 167.8C990.779 167.8 1030.54 163.241 1030.54 137.533C1030.54 89.4723 876.042 142.662 876.042 61.7695C876.042 18.0465 927.68 0.823242 969.029 0.823242C1010.38 0.823242 1054.89 14.6588 1061.22 56.6088L1034.91 67.0884C1027 39.0056 996.731 30.0774 969.029 30.0774C942.909 30.0774 913.433 40.367 913.433 58.7617C913.433 103.086 1065.56 56.0073 1065.56 135.127L1065.37 134.937H1065.34Z" fill="white"/>
<path d="M1285.16 134.937C1285.16 185.973 1233.14 200.822 1191.98 200.822C1160.54 200.822 1105.52 196.263 1094.85 145.828L1122.93 132.372C1134.8 163.621 1164.28 167.8 1188.62 167.8C1210.6 167.8 1250.36 163.241 1250.36 137.533C1250.36 89.4723 1095.86 142.662 1095.86 61.7695C1095.86 18.0465 1147.5 0.823242 1188.85 0.823242C1230.19 0.823242 1274.71 14.6588 1281.04 56.6088L1254.73 67.0884C1246.82 39.0056 1216.55 30.0774 1188.85 30.0774C1162.73 30.0774 1133.25 40.367 1133.25 58.7617C1133.25 103.086 1285.38 56.0073 1285.38 135.127L1285.19 134.937H1285.16Z" fill="white"/>
<path d="M1500.38 193.888H1325.68V7.12366H1495.03V38.5941H1357.15V81.9054H1471.7V113.946H1357.15V163.019H1500.38V193.888Z" fill="white"/>
<path d="M1536.22 124.837V7.12366H1567.88V117.523C1567.88 150.355 1586.88 168.56 1626.84 168.56C1666.79 168.56 1685.79 150.355 1685.79 117.523V7.12366H1717.45V124.837C1717.45 169.953 1683.41 200.6 1626.84 200.6C1570.26 200.6 1536.22 169.921 1536.22 124.837Z" fill="white"/>
<path d="M1871.16 138.293L1936.86 7.12366H1977V193.888H1945.34V63.5108C1932.49 87.636 1891.74 169.953 1878.85 194.078H1863.62L1797.36 63.5108V193.698H1765.7V7.12366H1805.65C1818.51 31.8504 1858.69 113.756 1871.35 138.293H1871.16Z" fill="white"/>
</g>
<defs>
<clipPath id="clip0_1178_6242">
<rect width="1977" height="200.79" fill="white"/>
</clipPath>
</defs>
</svg>
